<?xml version="1.0" standalone="no"?><!DOCTYPE svg PUBLIC "-//W3C//DTD SVG 1.1//EN" "http://www.w3.org/Graphics/SVG/1.1/DTD/svg11.dtd"><svg t="1527995739501" class="icon" style="" viewBox="0 0 1024 1024" version="1.1" xmlns="http://www.w3.org/2000/svg" p-id="3179" xmlns:xlink="http://www.w3.org/1999/xlink" width="300" height="300"><defs><style type="text/css"></style></defs><path d="M989.589333 246.293333c45.845333-45.888 45.845333-120.554667 0-166.442667-22.272-22.229333-51.797333-34.474667-83.242667-34.474667-31.424 0-60.992 12.224-82.496 33.792l-217.621333 198.272c-13.44 13.482667-33.941333 18.346667-52.074667 12.288l-119.616-39.893333c-33.322667-11.093333-70.954667-2.176-95.808 22.634667l-104.682667 104.682667c-4.010667 3.989333-6.250667 9.429333-6.250667 15.104 0 5.674667 2.24 11.093333 6.250667 15.104l408.746667 408.746667c4.16 4.181333 9.621333 6.272 15.082667 6.272 5.504 0 10.965333-2.048 15.125333-6.293333l104.704-104.661333c25.258667-25.194667 33.92-61.909333 22.634667-95.786667l-39.872-119.637333c-6.122667-18.453333-1.386667-38.378667 11.584-51.392L989.589333 246.293333zM719.914667 509.546667l39.829333 119.616c6.122667 18.410667 1.408 38.378667-12.288 52.074667l-89.621333 89.536L279.317333 392.256l89.6-89.557333c13.482667-13.482667 34.005333-18.346667 52.074667-12.309333l119.68 39.893333c33.258667 11.114667 71.338667 1.941333 95.082667-21.930667L853.333333 110.08c28.330667-28.352 77.717333-28.352 106.048 0 29.205333 29.226667 29.205333 76.8 0.704 105.386667l-217.536 198.250667C717.248 438.933333 708.586667 475.648 719.914667 509.546667z" p-id="3180" fill="#ffffff"></path><path d="M213.141333 428.224c-8-8-22.229333-8-30.229333 0-42.752 42.794667-124.544 83.392-169.088 100.224-6.805333 2.624-11.818667 8.448-13.333333 15.530667-1.536 7.104 0.661333 14.485333 5.781333 19.605333L415.061333 972.373333c4.074667 4.032 9.536 6.272 15.104 6.272 2.538667 0 5.077333-0.469333 7.573333-1.344 41.301333-15.637333 132.949333-58.794667 184.170667-110.037333 8.362667-8.405333 8.362667-21.845333 0-30.208L213.141333 428.224zM435.306667 932.245333 59.050667 555.968c40.725333-18.218667 97.386667-48.170667 138.325333-83.029333l378.453333 378.453333C535.509333 884.906667 475.690667 915.584 435.306667 932.245333z" p-id="3181" fill="#ffffff"></path><path d="M896.426667 210.56c19.968 0 36.16-16.170667 36.16-36.138667 0-19.925333-16.256-36.117333-36.16-36.096-19.861333 0-36.053333 16.149333-36.053333 36.096C860.352 194.389333 876.544 210.56 896.426667 210.56z" p-id="3182" fill="#ffffff"></path></svg>