<?xml version="1.0" standalone="no"?><!DOCTYPE svg PUBLIC "-//W3C//DTD SVG 1.1//EN" "http://www.w3.org/Graphics/SVG/1.1/DTD/svg11.dtd"><svg t="1548837465671" class="icon" style="" viewBox="0 0 1024 1024" version="1.1" xmlns="http://www.w3.org/2000/svg" p-id="2810" xmlns:xlink="http://www.w3.org/1999/xlink" width="200" height="200"><defs><style type="text/css"></style></defs><path d="M792.746667 656.213333c42.24-31.573333 67.413333-79.786667 67.413333-132.693333 3.413333-59.306667-28.16-113.92-78.08-145.493333-49.92-29.866667-113.92-29.866667-163.84 0s-81.493333 85.76-78.08 145.493333c0 53.333333 24.746667 101.546667 67.413333 132.693333-84.053333 42.24-140.373333 126.293333-146.773333 221.866667 0 15.786667 7.68 26.453333 21.76 26.453333h433.92c14.08 0 21.76-12.373333 21.76-26.453333-5.973333-95.573333-60.586667-178.346667-145.493333-221.866667z" fill="#BFCBD9" p-id="2811"></path><path d="M392.533333 878.08v-4.266667c5.973333-89.173333 46.933333-171.946667 112.213334-229.546666-21.333333-34.986667-32.853333-75.52-33.28-118.186667-3.84-82.773333 39.68-163.413333 111.36-206.08 34.986667-20.906667 75.52-32 116.906666-32s81.92 11.093333 116.906667 32l1.28 0.853333c19.626667 12.373333 37.12 27.306667 52.053333 43.946667V170.666667c0-28.16-23.04-51.2-51.2-51.2H136.533333c-28.16 0-51.2 23.04-51.2 51.2v682.666666c0 28.16 23.04 51.2 51.2 51.2h259.413334c-2.133333-8.533333-3.413333-17.066667-3.413334-26.453333zM293.12 256h170.666667c18.773333 0 34.133333 15.36 34.133333 34.133333s-15.36 34.133333-34.133333 34.133334h-170.666667c-18.773333 0-34.133333-15.36-34.133333-34.133334s15.36-34.133333 34.133333-34.133333z m-102.4 0c18.773333 0 34.133333 15.36 34.133333 34.133333s-15.36 34.133333-34.133333 34.133334-34.133333-15.36-34.133333-34.133334 15.36-34.133333 34.133333-34.133333z m0 204.8h221.866667c18.773333 0 34.133333 15.36 34.133333 34.133333s-15.36 34.133333-34.133333 34.133334h-221.866667c-18.773333 0-34.133333-15.36-34.133333-34.133334s15.36-34.133333 34.133333-34.133333z m153.6 204.8h-153.6c-18.773333 0-34.133333-15.36-34.133333-34.133333s15.36-34.133333 34.133333-34.133334h153.6c18.773333 0 34.133333 15.36 34.133333 34.133334s-15.36 34.133333-34.133333 34.133333z" fill="#BFCBD9" p-id="2812"></path></svg>