<?xml version="1.0" standalone="no"?><!DOCTYPE svg PUBLIC "-//W3C//DTD SVG 1.1//EN" "http://www.w3.org/Graphics/SVG/1.1/DTD/svg11.dtd"><svg t="1548841468959" class="icon" style="" viewBox="0 0 1024 1024" version="1.1" xmlns="http://www.w3.org/2000/svg" p-id="17592" xmlns:xlink="http://www.w3.org/1999/xlink" width="200" height="200"><defs><style type="text/css"></style></defs><path d="M783.27808 635.56608 403.456 255.76448c-4.13696-4.13696-9.73824-6.46144-15.58528-6.46144l-139.0592 0c-10.02496-12.72832-23.48032-23.63392-39.3216-31.488-38.11328-18.944-81.0496-15.8208-104.448 7.55712-4.32128 4.32128-7.8848 9.25696-10.55744 14.67392-8.64256 17.37728-7.75168 38.03136 2.48832 58.13248 9.87136 19.39456 27.37152 36.05504 49.3056 46.94016 9.84064 4.88448 19.99872 8.27392 30.0544 10.26048l0 105.45152c0.01024 5.84704 2.33472 11.4688 6.47168 15.59552l379.81184 379.81184c8.61184 8.62208 22.56896 8.62208 31.19104 0l189.48096-189.48096C791.88992 658.15552 791.88992 644.18816 783.27808 635.56608zM182.80448 255.76448c-4.12672 4.12672-6.46144 9.74848-6.46144 15.58528l0 69.02784c-7.86432-1.80224-15.77984-4.58752-23.52128-8.42752-19.11808-9.49248-34.31424-23.84896-42.74176-40.448-8.07936-15.85152-8.93952-31.80544-2.42688-44.91264 1.96608-3.98336 4.57728-7.6288 7.79264-10.81344 18.98496-18.98496 54.96832-20.95104 87.51104-4.79232 9.91232 4.9152 18.71872 11.15136 26.13248 18.31936l-30.68928 0C192.54272 249.2928 186.94144 251.61728 182.80448 255.76448zM231.3216 304.29184c5.89824-5.90848 13.24032-9.5232 20.89984-10.87488 0.67584 8.15104-0.63488 15.94368-4.08576 22.91712-1.96608 3.98336-4.58752 7.6288-7.80288 10.82368-5.376 5.38624-12.16512 9.34912-19.83488 11.97056C218.24512 326.88128 221.83936 313.76384 231.3216 304.29184zM286.7712 359.74144c-15.3088 15.3088-40.1408 15.3088-55.4496 0-2.1504-2.1504-3.98336-4.49536-5.50912-6.98368 9.56416-3.328 18.10432-8.36608 24.9344-15.19616 4.32128-4.32128 7.8848-9.25696 10.55744-14.67392 4.49536-9.05216 6.35904-18.98496 5.71392-29.25568 7.23968 1.49504 14.15168 5.03808 19.7632 10.65984C302.08 319.60064 302.08 344.4224 286.7712 359.74144zM928.95232 622.58176 739.4816 812.06272c-8.62208 8.61184-22.58944 8.61184-31.20128 0l-9.59488-9.60512 118.13888-118.15936c8.28416-8.27392 12.84096-19.26144 12.84096-30.95552s-4.54656-22.69184-12.83072-30.95552L437.03296 242.56512c-8.2944-8.27392-19.28192-12.82048-30.94528-12.82048l-84.0704 0 0-2.57024c0-5.84704 2.33472-11.45856 6.47168-15.59552 4.13696-4.12672 9.728-6.46144 15.57504-6.46144l30.69952 0c-7.424-7.15776-16.24064-13.40416-26.13248-18.31936-32.55296-16.15872-68.53632-14.19264-87.52128 4.79232-3.20512 3.18464-5.80608 6.83008-7.80288 10.81344-0.94208 1.92512-1.6896 3.91168-2.32448 5.94944-4.18816-2.67264-8.46848-5.21216-12.9536-7.46496 0.64512-1.6896 1.29024-3.38944 2.0992-5.02784 2.70336-5.40672 6.2464-10.3424 10.57792-14.67392 23.37792-23.37792 66.34496-26.49088 104.448-7.55712 15.83104 7.85408 29.29664 18.75968 39.31136 31.488l139.06944 0c5.82656 0 11.44832 2.33472 15.58528 6.46144l379.81184 379.81184C937.5744 600.0128 937.5744 613.98016 928.95232 622.58176z" p-id="17593" fill="#BFCBD9"></path></svg>